#N canvas 674 153 563 429 10;
#X obj 80 198 *~, f 4;
#X obj 82 275 dac~;
#X obj 389 121 osc~ 440;
#X obj 389 90 mtof;
#X floatatom 389 34 5 0 0 1 r:accelX accelX -, f 5;
#X obj 80 46 bng 15 250 50 0 empty trigger r:trigger 17 7 0 10 -262144
-1 -1;
#X msg 80 66 1 10 \, 0 1000 10;
#X obj 80 102 vline~;
#X connect 0 0 1 0;
#X connect 0 0 1 1;
#X connect 2 0 0 1;
#X connect 3 0 2 0;
#X connect 4 0 3 0;
#X connect 5 0 6 0;
#X connect 6 0 7 0;
#X connect 7 0 0 0;
